<?xml version="1.0" encoding="utf-8"?>
<!-- Generator: Adobe Illustrator 19.0.0, SVG Export Plug-In . SVG Version: 6.00 Build 0)  -->
<svg version="1.1" id="Layer_1" xmlns="http://www.w3.org/2000/svg" xmlns:xlink="http://www.w3.org/1999/xlink" x="0px" y="0px"
   viewBox="0 0 694.635 81.162" enable-background="new 0 0 694.635 81.162" xml:space="preserve">
<g id="typo">
  <path id="XMLID_55_" fill="#FFFFFF" d="M50.263,0.012c0.988-0.111,1.732,0.581,1.819,1.349l1.862,16.555
    c0.11,0.986-0.474,1.718-1.461,1.828l-27.845,3.133l1.123,9.976l22.583-2.541c0.986-0.111,1.622,0.594,1.585,1.264l0.193,15.521
    c-0.037,0.67-0.717,1.525-1.704,1.634l-20.61,2.319l2.947,26.201c0.087,0.766-0.594,1.622-1.472,1.719L9.88,81.154
    c-0.878,0.098-1.634-0.706-1.72-1.474L0.009,7.22C-0.078,6.451,0.493,5.611,1.37,5.512L50.263,0.012z"/>
  <path id="XMLID_79_" fill="#FFFFFF" d="M82.223,30.214l-6.431,18.255l10.561,0.653L82.223,30.214z M113.997,75.182
    c0.256,0.604-0.177,1.264-0.959,1.215l-19.365-1.198c-0.88-0.055-1.633-0.593-1.974-1.399L89.4,63.35l-18.386-1.138l-3.57,10.086
    c-0.44,0.76-1.253,1.199-2.133,1.147l-19.363-1.201c-0.783-0.047-1.132-0.755-0.802-1.326l26.122-63.57
    c0.331-0.568,1.448-1.186,2.426-1.125l19.951,1.234c0.977,0.061,2.012,0.812,2.269,1.416L113.997,75.182z"/>
  <path id="XMLID_52_" fill="#FFFFFF" d="M169.612,64.997c0.388,0.637,0.068,1.178-0.626,1.87
    c-4.078,4.042-11.911,7.429-19.576,8.515c-18.431,2.613-35.587-10.888-38.325-30.194c-2.736-19.305,9.99-37.043,28.423-39.656
    c7.664-1.087,16.129-0.012,21.17,2.738c0.859,0.473,1.315,0.902,1.121,1.623l-4.282,13.768c-0.264,0.929-0.902,1.317-1.734,1.037
    c-3.878-1.527-7.467-1.71-11.639-1.119c-8.245,1.168-13.783,9.574-12.49,18.693c1.293,9.12,8.948,15.655,17.195,14.487
    c4.171-0.593,7.567-1.767,10.868-4.313c0.722-0.499,1.442-0.305,1.954,0.513L169.612,64.997z"/>
  <path id="XMLID_51_" fill="#FFFFFF" d="M216.09,11.322c0.881,0,1.469,0.686,1.372,1.373l-1.471,14.893
    c-0.097,0.783-0.881,1.373-1.568,1.373h-12.639v48.598c0,0.689-0.587,1.374-1.372,1.374h-17.343c-0.785,0-1.471-0.685-1.471-1.374
    V28.961h-14.305c-0.687,0-1.372-0.59-1.372-1.373V12.791c0-0.783,0.685-1.469,1.372-1.469H216.09z"/>
  <path id="XMLID_50_" fill="#FFFFFF" d="M327.753,2.866c0.882,0,1.543,0.771,1.543,1.651v72.802c0,0.771-0.661,1.543-1.543,1.543
    h-20.374c-0.881,0-1.653-0.772-1.653-1.543V44.938l-11.123,32.271c-0.331,0.991-1.322,1.653-2.314,1.653h-12.996
    c-0.991,0-1.981-0.662-2.312-1.653l-11.124-32.271v32.381c0,0.771-0.771,1.543-1.653,1.543h-20.376c-0.88,0-1.54-0.772-1.54-1.543
    V4.517c0-0.88,0.66-1.651,1.54-1.651h26.213c1.432,0,2.754,0.881,3.195,2.203l12.556,41.301l12.554-41.301
    c0.331-1.322,1.654-2.203,3.194-2.203H327.753z"/>
  <path id="XMLID_78_" fill="#FFFFFF" d="M361.971,45.128c0,16.328,3.249,27.216,8.097,27.216c4.847,0,8.095-10.888,8.095-27.216
    c0-16.33-3.248-27.215-8.095-27.215C365.22,17.913,361.971,28.798,361.971,45.128 M405.342,44.959
    c0,21.163-14.109,35.275-35.274,35.275c-21.166,0-35.275-14.112-35.275-35.275c0-21.166,14.109-35.276,35.275-35.276
    C391.233,9.683,405.342,23.793,405.342,44.959"/>
  <path id="XMLID_47_" fill="#FFFFFF" d="M467.082,11.252c0.882,0,1.47,0.685,1.47,1.468v64.768c0,0.689-0.588,1.374-1.47,1.374
    H450.13c-0.687,0-1.569-0.49-2.058-1.273l-17.051-30.475v30.374c0,0.689-0.587,1.374-1.468,1.374h-17.345
    c-0.783,0-1.37-0.685-1.37-1.374V12.72c0-0.783,0.587-1.468,1.37-1.468h16.952c0.883,0,1.861,0.489,2.254,1.273l16.952,30.474
    V12.72c0-0.783,0.686-1.468,1.372-1.468H467.082z"/>
  <path id="XMLID_46_" fill="#FFFFFF" d="M484.929,61.329c0.254-1.025,0.988-1.424,1.736-1.033c5.286,2.426,11.31,3.759,14.902,3.258
    c2.716-0.38,4.37-1.996,4.085-4.036c-1.208-8.635-28.223-1.591-31.413-24.397c-1.819-13.003,6.776-23.01,21.524-25.074
    c7.376-1.032,16.42,0.672,22.742,4.14c0.539,0.32,0.815,0.877,0.606,1.499l-5.04,12.775c-0.364,0.942-1.001,1.328-1.736,1.034
    c-4.816-1.899-10.092-2.842-13.392-2.381c-2.815,0.394-4.551,2.121-4.252,4.256c1.031,7.375,28.004,0.04,31.302,23.62
    c1.819,13.005-6.966,23.04-21.912,25.13c-7.279,1.018-16.322-0.686-22.644-4.151c-0.539-0.323-0.815-0.878-0.607-1.5
    L484.929,61.329z"/>
  <path id="XMLID_45_" fill="#FFFFFF" d="M574.682,11.252c0.882,0,1.47,0.685,1.374,1.372l-1.472,14.893
    c-0.097,0.783-0.881,1.373-1.568,1.373h-12.64v48.598c0,0.689-0.587,1.374-1.371,1.374h-17.344c-0.785,0-1.469-0.685-1.469-1.374
    V28.89h-14.306c-0.688,0-1.373-0.59-1.373-1.373V12.72c0-0.783,0.685-1.468,1.373-1.468H574.682z"/>
  <path id="XMLID_44_" fill="#FFFFFF" d="M622.315,62.791c0.753,0.03,1.388,0.622,1.359,1.282l-0.61,14.393
    c-0.028,0.659-0.715,1.29-1.469,1.258l-41.86-1.778c-0.659-0.028-1.285-0.809-1.445-1.475l2.64-62.18
    c0.035-0.847,0.526-1.297,1.37-1.261l41.394,1.756c0.847,0.037,1.477,0.722,1.449,1.382l-0.603,14.204
    c-0.037,0.847-0.718,1.383-1.566,1.348l-23.14-0.984l-0.316,7.433l21.447,0.91c0.846,0.034,1.288,0.715,1.172,1.275l-1.876,13.114
    c-0.118,0.559-0.805,1.19-1.651,1.156l-19.754-0.841l-0.34,7.996L622.315,62.791z"/>
  <path id="XMLID_77_" fill="#FFFFFF" d="M656.947,39.273c3.33,0,5.584-2.057,5.584-5.191c0-3.137-2.254-5.193-5.584-5.193h-5.781
    v10.384H656.947z M686.832,77.294c0.49,0.882-0.195,1.567-1.078,1.567h-19.892c-0.978,0-1.86-0.685-2.254-1.567l-8.623-19.991
    c-0.88-2.155-2.35-3.232-3.819-3.036v23.22c0,0.689-0.687,1.374-1.568,1.374h-17.246c-0.784,0-1.469-0.685-1.469-1.374V12.72
    c0-0.783,0.685-1.469,1.469-1.469h25.869c15.089,0,25.084,8.818,25.084,22.146c0,7.836-4.215,14.794-10.974,18.224L686.832,77.294z
    "/>
  <path id="XMLID_38_" fill="#FFFFFF" d="M689.282,15.504c0-0.249-0.113-0.434-0.333-0.549c-0.222-0.116-0.449-0.174-0.681-0.174
    h-1.099v1.562h1.099c0.27,0,0.507-0.076,0.71-0.231C689.18,15.958,689.282,15.756,689.282,15.504 M689.455,20.627l-1.448-2.78
    h-0.838v2.78h-2.055v-7.524h3.241c0.367,0,0.733,0.038,1.1,0.115c0.366,0.077,0.699,0.207,0.998,0.391
    c0.3,0.184,0.54,0.429,0.723,0.738c0.185,0.309,0.276,0.685,0.276,1.129c0,0.501-0.141,0.93-0.42,1.287
    c-0.279,0.358-0.642,0.612-1.085,0.767l1.91,3.097H689.455z M693.593,17.009c0-0.771-0.144-1.494-0.435-2.17
    c-0.289-0.676-0.684-1.268-1.185-1.78c-0.503-0.511-1.086-0.912-1.751-1.201c-0.666-0.289-1.384-0.434-2.155-0.434
    c-0.773,0-1.497,0.145-2.171,0.434c-0.677,0.289-1.269,0.69-1.779,1.201c-0.512,0.512-0.913,1.104-1.203,1.78
    c-0.29,0.676-0.433,1.399-0.433,2.17c0,0.752,0.143,1.466,0.433,2.141c0.29,0.677,0.691,1.264,1.203,1.766
    c0.51,0.501,1.102,0.897,1.779,1.186c0.674,0.29,1.398,0.435,2.171,0.435c0.771,0,1.489-0.145,2.155-0.435
    c0.665-0.289,1.248-0.685,1.751-1.186c0.501-0.502,0.896-1.089,1.185-1.766C693.449,18.475,693.593,17.761,693.593,17.009
     M694.635,17.009c0,0.908-0.174,1.755-0.521,2.547c-0.347,0.791-0.815,1.475-1.403,2.055c-0.59,0.578-1.284,1.037-2.084,1.374
    c-0.801,0.337-1.654,0.506-2.56,0.506c-0.909,0-1.766-0.169-2.576-0.506c-0.811-0.337-1.515-0.796-2.114-1.374
    c-0.597-0.58-1.07-1.264-1.417-2.055c-0.347-0.792-0.521-1.639-0.521-2.547c0-0.907,0.174-1.76,0.521-2.561
    c0.347-0.801,0.82-1.495,1.417-2.083c0.599-0.589,1.303-1.056,2.114-1.403c0.81-0.349,1.667-0.521,2.576-0.521
    c0.906,0,1.759,0.172,2.56,0.521c0.8,0.347,1.494,0.814,2.084,1.403c0.588,0.588,1.056,1.282,1.403,2.083
    C694.461,15.249,694.635,16.102,694.635,17.009"/>
</g>
<g id="spots">
  <path id="XMLID_37_" fill="#99DEE9" d="M131.363,57.385c-2.737-2.502-6.603-2.726-8.633-0.503
    c-2.032,2.225-1.459,6.053,1.279,8.554c2.737,2.501,6.603,2.724,8.634,0.503C134.674,63.714,134.101,59.884,131.363,57.385"/>
  <path id="XMLID_36_" fill="#99DEE9" d="M141.665,64.211c1.266-1.386,0.914-3.769-0.786-5.321c-1.7-1.553-4.106-1.688-5.371-0.302
    c-1.266,1.386-0.915,3.769,0.785,5.322C137.994,65.463,140.398,65.598,141.665,64.211"/>
  <path id="XMLID_35_" fill="#99DEE9" d="M139.448,67.417c-1.084,1.188-1.072,2.963,0.026,3.966c1.099,1.004,2.869,0.855,3.952-0.331
    c1.084-1.187,1.073-2.964-0.026-3.967C142.302,66.082,140.531,66.23,139.448,67.417"/>
  <path id="XMLID_34_" fill="#99DEE9" d="M316.99,53.702c-2.507,2.73-2.535,6.785-0.062,9.054c2.474,2.271,6.512,1.899,9.019-0.832
    c2.507-2.734,2.535-6.787,0.061-9.059C323.535,50.596,319.497,50.971,316.99,53.702"/>
  <path id="XMLID_33_" fill="#99DEE9" d="M318.487,67.807c-1.558,1.695-1.698,4.101-0.315,5.371c1.382,1.27,3.766,0.924,5.324-0.773
    c1.556-1.696,1.697-4.1,0.314-5.371C322.428,65.764,320.044,66.11,318.487,67.807"/>
  <path id="XMLID_32_" fill="#99DEE9" d="M311.004,70.969c-1.006,1.096-0.862,2.866,0.322,3.953c1.185,1.086,2.961,1.08,3.966-0.016
    c1.006-1.097,0.863-2.869-0.322-3.955S312.009,69.872,311.004,70.969"/>
  <path id="XMLID_31_" fill="#99DEE9" d="M663.227,15.967c-2.932,1.637-4.077,5.167-2.559,7.88c1.517,2.715,5.122,3.587,8.052,1.949
    c2.931-1.639,4.077-5.166,2.56-7.881C669.762,15.201,666.159,14.329,663.227,15.967"/>
  <path id="XMLID_30_" fill="#99DEE9" d="M678.244,29.768c1.64-0.916,2.057-3.288,0.934-5.297c-1.123-2.01-3.363-2.897-5.002-1.98
    c-1.639,0.915-2.056,3.287-0.933,5.297S676.606,30.684,678.244,29.768"/>
  <path id="XMLID_29_" fill="#99DEE9" d="M675.129,32.112c-1.403,0.784-1.953,2.473-1.227,3.771c0.726,1.299,2.452,1.716,3.856,0.933
    c1.403-0.787,1.952-2.473,1.226-3.772C678.258,31.744,676.532,31.327,675.129,32.112"/>
  <path id="XMLID_28_" fill="#99DEE9" d="M62.387,61.88c-1.42,1.555-1.457,3.835-0.082,5.09c1.376,1.258,3.643,1.015,5.062-0.539
    c1.421-1.555,1.457-3.834,0.082-5.09C66.073,60.083,63.807,60.325,62.387,61.88"/>
  <path id="XMLID_27_" fill="#99DEE9" d="M104.084,39.197c-2.737-2.499-6.602-2.723-8.634-0.501
    c-2.031,2.225-1.458,6.053,1.279,8.554c2.738,2.502,6.604,2.725,8.635,0.501c0.394-0.43,0.661-0.935,0.862-1.463l-1.848-6.774
    C104.276,39.411,104.193,39.297,104.084,39.197"/>
  <path id="XMLID_26_" fill="#99DEE9" d="M102.968,34.345l-1.772-6.501c-0.879,0.121-1.755,0.557-2.436,1.301
    c-1.421,1.556-1.457,3.834-0.081,5.092C99.826,35.284,101.59,35.275,102.968,34.345"/>
  <path id="XMLID_25_" fill="#99DEE9" d="M319.757,39.664c0.304-4.933-3.665-10.013-8.867-11.346
    c-5.206-1.331-9.671,1.588-9.978,6.523c-0.304,4.932,3.668,10.01,8.87,11.342C314.987,47.516,319.453,44.597,319.757,39.664"/>
  <path id="XMLID_24_" fill="#99DEE9" d="M347.82,41.463c4.026-0.575,7.46-4.619,7.668-9.032c0.207-4.417-2.888-7.53-6.916-6.956
    c-4.025,0.576-7.457,4.621-7.664,9.035C340.7,38.926,343.796,42.039,347.82,41.463"/>
  <path id="XMLID_23_" fill="#99DEE9" d="M342.645,53.201c1.007-1.097,0.863-2.867-0.322-3.954s-2.96-1.079-3.966,0.017
    s-0.861,2.867,0.321,3.954C339.864,54.304,341.64,54.298,342.645,53.201"/>
  <path id="XMLID_22_" fill="#99DEE9" d="M345.839,44.018c-1.558,1.695-1.698,4.101-0.314,5.371c1.381,1.27,3.764,0.924,5.323-0.773
    c1.556-1.696,1.697-4.1,0.314-5.371C349.78,41.975,347.396,42.321,345.839,44.018"/>
  <path id="XMLID_21_" fill="#99DEE9" d="M425.105,69.585c-1.798,0.538-2.721,2.764-2.058,4.97c0.66,2.206,2.655,3.556,4.454,3.017
    c1.798-0.538,2.72-2.762,2.058-4.969C428.898,70.397,426.905,69.048,425.105,69.585"/>
  <path id="XMLID_20_" fill="#99DEE9" d="M613.181,67.835c-0.504-3.28-3.782-5.502-7.328-4.96c-3.546,0.544-6.011,3.646-5.507,6.926
    c0.502,3.285,3.781,5.505,7.327,4.962C611.218,74.222,613.684,71.119,613.181,67.835"/>
  <path id="XMLID_19_" fill="#99DEE9" d="M64.948,53.244c0-4.586-3.289-8.304-7.345-8.304c-0.645,0-1.259,0.124-1.855,0.301
    l-4.753,11.568c1.182,2.794,3.685,4.741,6.608,4.741C61.659,61.55,64.948,57.831,64.948,53.244"/>
  <path id="XMLID_18_" fill="#99DEE9" d="M287.198,62.722c3.019-5.102,1.742-11.475-2.855-14.24
    c-4.595-2.762-10.767-0.868-13.785,4.231c-0.49,0.829-0.868,1.693-1.135,2.568l4.028,11.686
    C278.042,69.696,284.188,67.805,287.198,62.722"/>
  <path id="XMLID_17_" fill="#99DEE9" d="M279.838,70.76c-1.496-1.373-3.564-1.771-5.52-1.273l2.662,7.722
    c0.331,0.991,1.321,1.653,2.313,1.653h1.213C282.248,76.205,282.038,72.78,279.838,70.76"/>
  <path id="XMLID_16_" fill="#99DEE9" d="M355.627,69.117c1.613-4.747-0.555-9.801-4.841-11.289
    c-4.283-1.487-9.061,1.154-10.672,5.899c-0.097,0.289-0.169,0.58-0.239,0.872c2.554,4.24,6.006,7.738,10.205,10.341
    C352.543,74.049,354.659,71.969,355.627,69.117"/>
  <path id="XMLID_15_" fill="#99DEE9" d="M417.909,73.311c3.218-0.965,4.963-4.625,3.897-8.176c-1.066-3.553-4.536-5.649-7.752-4.685
    c-1.378,0.413-2.484,1.325-3.215,2.508v7.229C412.319,72.758,415.201,74.123,417.909,73.311"/>
  <path id="XMLID_14_" fill="#99DEE9" d="M618.629,77.349c-0.372-2.433-2.28-4.157-4.263-3.853c-1.983,0.304-3.288,2.52-2.916,4.952
    c0.046,0.296,0.116,0.58,0.204,0.852l6.825,0.29C618.679,78.903,618.75,78.14,618.629,77.349"/>
  <path id="XMLID_13_" fill="#99DEE9" d="M20.851,34.857c-2.737-2.502-6.603-2.726-8.633-0.503c-2.032,2.225-1.459,6.053,1.279,8.554
    c2.737,2.501,6.603,2.724,8.634,0.503C24.162,41.186,23.589,37.356,20.851,34.857"/>
  <path id="XMLID_12_" fill="#99DEE9" d="M31.153,41.682c1.266-1.386,0.914-3.769-0.786-5.321c-1.7-1.553-4.106-1.688-5.371-0.302
    c-1.266,1.386-0.915,3.769,0.785,5.322C27.482,42.934,29.886,43.069,31.153,41.682"/>
  <path id="XMLID_11_" fill="#99DEE9" d="M17.98,26.027c-1.084,1.188-1.072,2.963,0.026,3.966c1.099,1.004,2.869,0.855,3.952-0.331
    c1.084-1.187,1.073-2.964-0.026-3.967C20.834,24.692,19.063,24.84,17.98,26.027"/>
</g>
</svg>
